<svg width="24" height="24" viewBox="0 0 24 24" fill="none" xmlns="http://www.w3.org/2000/svg">
<path fill-rule="evenodd" clip-rule="evenodd" d="M12.0002 3C10.3434 3 9.00024 4.34315 9.00024 6C9.00024 7.31133 9.8416 8.42615 11.0139 8.8341C11.0049 8.88806 11.0002 8.94348 11.0002 9L11.0002 11H10.0002C9.44796 11 9.00024 11.4477 9.00024 12C9.00024 12.5523 9.44796 13 10.0002 13H11.0002L11.0002 17.8748C8.61978 17.2771 6.60013 14.591 6.60013 10.9999C6.60013 10.6551 6.42251 10.3346 6.13013 10.1519L4.53013 9.15189C4.0618 8.85918 3.44485 9.00155 3.15214 9.46989C2.85943 9.93823 3.0018 10.5552 3.47013 10.8479L4.61476 11.5633C4.83003 15.7069 7.40232 19.3461 11.0002 19.921V20C11.0002 20.5523 11.448 21 12.0002 21C12.5525 21 13.0002 20.5523 13.0002 20V19.921C16.5981 19.3459 19.1702 15.7068 19.3855 11.5633L20.5301 10.8479C20.9985 10.5552 21.1408 9.93823 20.8481 9.46989C20.5554 9.00155 19.9385 8.85918 19.4701 9.15189L17.8701 10.1519C17.5778 10.3346 17.4001 10.6551 17.4001 10.9999C17.4001 14.5909 15.3806 17.2769 13.0002 17.8748L13.0002 13H14.0002C14.5525 13 15.0002 12.5523 15.0002 12C15.0002 11.4477 14.5525 11 14.0002 11H13.0002L13.0002 9C13.0002 8.94348 12.9955 8.88806 12.9865 8.8341C14.1589 8.42616 15.0002 7.31133 15.0002 6C15.0002 4.34315 13.6571 3 12.0002 3ZM11.0002 6C11.0002 5.44772 11.448 5 12.0002 5C12.5525 5 13.0002 5.44772 13.0002 6C13.0002 6.55228 12.5525 7 12.0002 7C11.448 7 11.0002 6.55228 11.0002 6Z" fill="#0F1013"/>
</svg>
