<svg width="24" height="24" viewBox="0 0 24 24" fill="none" xmlns="http://www.w3.org/2000/svg">
<path fill-rule="evenodd" clip-rule="evenodd" d="M16.921 4.2348C18.1878 4.99485 19.2479 6.05503 20.008 7.32177L20.57 8.25844C20.8061 8.65192 20.7441 9.15557 20.4196 9.48004L12.3037 17.596C12.2932 17.6069 12.2825 17.6177 12.2715 17.6282L10.3433 19.5563C10.1071 19.7926 9.76844 19.8952 9.44079 19.8299L9.43307 19.8284L9.40089 19.8223C9.37143 19.8168 9.3264 19.8087 9.26799 19.7987C9.15099 19.7787 8.98127 19.7517 8.77609 19.7247C8.36175 19.6701 7.82097 19.6177 7.28515 19.6183C6.88223 19.6188 6.51519 19.6494 6.22062 19.7163C5.91041 19.7867 5.78235 19.8747 5.74715 19.9099C5.35662 20.3004 4.72346 20.3004 4.33293 19.9099C3.94241 19.5193 3.94241 18.8862 4.33293 18.4957C4.36814 18.4604 4.45607 18.3324 4.52653 18.0222C4.59345 17.7276 4.62402 17.3606 4.62448 16.9576C4.62487 16.6114 4.60311 16.2612 4.57243 15.9423C4.54062 15.6116 4.49997 15.3223 4.46738 15.1165C4.45113 15.0138 4.43701 14.9327 4.4272 14.8785C4.42229 14.8514 4.41848 14.8311 4.41602 14.8182L4.41339 14.8046L4.41301 14.8027C4.34749 14.4749 4.45009 14.1359 4.68648 13.8995L6.62141 11.9645C6.62795 11.9578 6.63458 11.9512 6.64128 11.9447L14.7628 3.82319C15.0872 3.49872 15.5909 3.43672 15.9844 3.6728L16.921 4.2348ZM7.54974 13.8646L6.46509 14.9493C6.49761 15.1684 6.53368 15.4435 6.56324 15.7508C6.5866 15.9936 6.60622 16.2597 6.61658 16.5367L7.70614 17.6262C8.20646 17.6449 8.6744 17.694 9.03746 17.7418C9.12916 17.7539 9.21488 17.766 9.29352 17.7777L10.3782 16.6931C9.7404 15.4882 8.75459 14.5024 7.54974 13.8646ZM11.8422 15.229C11.1292 14.0818 10.161 13.1136 9.0138 12.4006L15.6249 5.78949L15.892 5.94979C16.8773 6.54094 17.7019 7.36552 18.293 8.35077L18.4533 8.61792L11.8422 15.229Z" fill="#0F1013"/>
</svg>
