<svg width="22" height="24" viewBox="0 0 22 24" fill="none" xmlns="http://www.w3.org/2000/svg">
<path fill-rule="evenodd" clip-rule="evenodd" d="M3.8002 7.2C3.8002 3.22355 7.02375 0 11.0002 0C14.9766 0 18.2002 3.22355 18.2002 7.2C18.2002 11.1765 14.9766 14.4 11.0002 14.4C7.02375 14.4 3.8002 11.1765 3.8002 7.2Z" fill="#0F1013"/>
<path fill-rule="evenodd" clip-rule="evenodd" d="M0.200195 21.2C0.200195 15.9234 5.24967 12 11.0002 12C16.7507 12 21.8002 15.9234 21.8002 21.2C21.8002 22.2844 21.0196 22.9038 20.3501 23.2139C19.6847 23.5221 18.8252 23.6886 17.9257 23.7921C16.1197 24 13.6658 24 11.069 24H10.9314C8.33458 24 5.88065 24 4.07473 23.7921C3.17518 23.6886 2.31574 23.5221 1.65028 23.2139C0.980809 22.9038 0.200195 22.2844 0.200195 21.2Z" fill="#0F1013"/>
</svg>
