<svg width="20" height="24" viewBox="0 0 20 24" fill="none" xmlns="http://www.w3.org/2000/svg">
<path d="M9.6 0C7.51 0 5.73 1.25156 5.075 3H3.2C1.435 3 0 4.34531 0 6V21C0 22.6547 1.435 24 3.2 24H16C17.765 24 19.2 22.6547 19.2 21V6C19.2 4.34531 17.765 3 16 3H14.125C13.47 1.25156 11.69 0 9.6 0ZM9.6 3C10.0243 3 10.4313 3.15804 10.7314 3.43934C11.0314 3.72064 11.2 4.10218 11.2 4.5C11.2 4.89782 11.0314 5.27936 10.7314 5.56066C10.4313 5.84196 10.0243 6 9.6 6C9.17565 6 8.76869 5.84196 8.46863 5.56066C8.16857 5.27936 8 4.89782 8 4.5C8 4.10218 8.16857 3.72064 8.46863 3.43934C8.76869 3.15804 9.17565 3 9.6 3ZM5.29 10.7484C5.685 9.70312 6.745 9 7.93 9H10.845C12.59 9 14 10.3266 14 11.9578C14 13.0172 13.395 13.9969 12.415 14.5266L10.8 15.3937C10.79 16.0031 10.255 16.5 9.6 16.5C8.935 16.5 8.4 15.9984 8.4 15.375V14.7422C8.4 14.3391 8.63 13.9688 9.005 13.7672L11.22 12.5766C11.455 12.45 11.6 12.2156 11.6 11.9625C11.6 11.5687 11.26 11.2547 10.845 11.2547H7.93C7.76 11.2547 7.61 11.3531 7.555 11.5031L7.535 11.5594C7.315 12.1453 6.625 12.45 6.005 12.2438C5.385 12.0375 5.055 11.3906 5.275 10.8094L5.295 10.7531L5.29 10.7484ZM8 19.5C8 19.1022 8.16857 18.7206 8.46863 18.4393C8.76869 18.158 9.17565 18 9.6 18C10.0243 18 10.4313 18.158 10.7314 18.4393C11.0314 18.7206 11.2 19.1022 11.2 19.5C11.2 19.8978 11.0314 20.2794 10.7314 20.5607C10.4313 20.842 10.0243 21 9.6 21C9.17565 21 8.76869 20.842 8.46863 20.5607C8.16857 20.2794 8 19.8978 8 19.5Z" fill="black"/>
</svg>
