<svg width="24" height="20" viewBox="0 0 24 20" fill="none" xmlns="http://www.w3.org/2000/svg">
<g clip-path="url(#clip0_1735_7041)">
<path d="M14.2875 4.3088L6.97875 1.56755C6.3525 1.33505 5.65875 1.3688 5.0625 1.6688L3.34125 2.52755C2.925 2.73755 2.895 3.3188 3.285 3.57005L8.79375 7.1138L5.1 9.00005L2.9175 8.0288C2.59125 7.88255 2.2125 7.89005 1.89375 8.0513L0.68625 8.65505C0.3375 8.8313 0.24375 9.28505 0.49875 9.5813L3.24 12.7801C3.46875 13.0463 3.8025 13.2001 4.15125 13.2001H9.315C9.5025 13.2001 9.68625 13.1551 9.85125 13.0726L20.085 7.95755C21.8288 7.0838 23.1788 5.5838 23.865 3.75755C24.2213 2.81255 23.52 1.80005 22.5075 1.80005H20.355C19.5975 1.80005 18.8475 1.98005 18.1725 2.32505L14.2875 4.3088ZM0 18.0001C0 18.6638 0.53625 19.2001 1.2 19.2001H22.8C23.4638 19.2001 24 18.6638 24 18.0001C24 17.3363 23.4638 16.8001 22.8 16.8001H1.2C0.53625 16.8001 0 17.3363 0 18.0001Z" fill="black"/>
</g>
<defs>
<clipPath id="clip0_1735_7041">
<rect width="24" height="19.2" fill="white"/>
</clipPath>
</defs>
</svg>
