<svg width="21" height="24" viewBox="0 0 21 24" fill="none" xmlns="http://www.w3.org/2000/svg">
<g clip-path="url(#clip0_1739_1311)">
<path d="M4.05 0.257812L2.89687 2.23125C2.71875 2.53594 2.625 2.8875 2.625 3.24375V3.375C2.625 4.41094 3.46406 5.25 4.5 5.25C5.53594 5.25 6.375 4.41094 6.375 3.375V3.24375C6.375 2.8875 6.28125 2.54062 6.10312 2.23125L4.95 0.257812C4.85625 0.0984375 4.6875 0 4.5 0C4.3125 0 4.14375 0.0984375 4.05 0.257812ZM10.05 0.257812L8.89687 2.23125C8.71875 2.53594 8.625 2.8875 8.625 3.24375V3.375C8.625 4.41094 9.46406 5.25 10.5 5.25C11.5359 5.25 12.375 4.41094 12.375 3.375V3.24375C12.375 2.8875 12.2812 2.54062 12.1031 2.23125L10.95 0.257812C10.8562 0.0984375 10.6875 0 10.5 0C10.3125 0 10.1437 0.0984375 10.05 0.257812ZM14.8969 2.23125C14.7187 2.53594 14.625 2.8875 14.625 3.24375V3.375C14.625 4.41094 15.4641 5.25 16.5 5.25C17.5359 5.25 18.375 4.41094 18.375 3.375V3.24375C18.375 2.8875 18.2812 2.54062 18.1031 2.23125L16.95 0.257812C16.8562 0.0984375 16.6875 0 16.5 0C16.3125 0 16.1437 0.0984375 16.05 0.257812L14.8969 2.23125ZM6 8.25C6 7.42031 5.32969 6.75 4.5 6.75C3.67031 6.75 3 7.42031 3 8.25V10.5C1.34531 10.5 0 11.8453 0 13.5V16.8281C0.389062 17.0719 0.848437 17.25 1.35 17.25C1.98281 17.25 2.625 16.9641 3.15 16.6219C3.40312 16.4578 3.61406 16.2891 3.75937 16.1672C3.82969 16.1062 3.88594 16.0547 3.92344 16.0219C3.94219 16.0031 3.95625 15.9937 3.96094 15.9844L3.96562 15.9797C4.11094 15.8297 4.3125 15.75 4.52344 15.7547C4.73437 15.7594 4.92656 15.8531 5.06719 16.0078L5.07187 16.0125C5.07656 16.0172 5.09062 16.0312 5.10469 16.0453C5.1375 16.0781 5.18437 16.125 5.25 16.1859C5.38125 16.3078 5.56875 16.4719 5.80312 16.6312C6.28125 16.9641 6.88125 17.2453 7.50469 17.2453C8.12812 17.2453 8.72812 16.9641 9.20625 16.6312C9.44062 16.4672 9.62812 16.3078 9.75937 16.1859C9.825 16.125 9.87187 16.0781 9.90469 16.0453C9.91875 16.0312 9.93281 16.0172 9.9375 16.0125L9.94219 16.0078C10.0828 15.8438 10.2891 15.7547 10.5047 15.7547C10.7203 15.7547 10.9266 15.8484 11.0672 16.0078L11.0719 16.0125C11.0766 16.0172 11.0906 16.0312 11.1047 16.0453C11.1375 16.0781 11.1844 16.125 11.25 16.1859C11.3812 16.3078 11.5687 16.4719 11.8031 16.6312C12.2812 16.9641 12.8812 17.2453 13.5047 17.2453C14.1281 17.2453 14.7281 16.9641 15.2062 16.6312C15.4406 16.4672 15.6281 16.3078 15.7594 16.1859C15.825 16.125 15.8719 16.0781 15.9047 16.0453C15.9187 16.0312 15.9328 16.0172 15.9375 16.0125L15.9422 16.0078C16.0781 15.8484 16.275 15.7594 16.4859 15.7547C16.6969 15.75 16.8937 15.8297 17.0437 15.9797L17.0484 15.9844C17.0578 15.9937 17.0672 16.0031 17.0859 16.0219C17.1234 16.0547 17.175 16.1062 17.25 16.1672C17.3953 16.2891 17.6016 16.4578 17.8594 16.6219C18.3844 16.9641 19.0266 17.25 19.6594 17.25C20.1609 17.25 20.6203 17.0672 21.0094 16.8281V13.5C21.0094 11.8453 19.6641 10.5 18.0094 10.5V8.25C18.0094 7.42031 17.3391 6.75 16.5094 6.75C15.6797 6.75 15.0094 7.42031 15.0094 8.25V10.5H12V8.25C12 7.42031 11.3297 6.75 10.5 6.75C9.67031 6.75 9 7.42031 9 8.25V10.5H6V8.25ZM21 18.4969C20.6016 18.6516 20.1469 18.75 19.65 18.75C18.5953 18.75 17.6625 18.2859 17.0344 17.8781C16.8422 17.7516 16.6687 17.625 16.5234 17.5125C16.3922 17.625 16.2375 17.7469 16.0641 17.8641C15.4594 18.2812 14.5594 18.75 13.5 18.75C12.4406 18.75 11.5406 18.2812 10.9406 17.8641C10.7766 17.7516 10.6266 17.6344 10.5 17.5266C10.3734 17.6344 10.2234 17.7469 10.0594 17.8641C9.45937 18.2812 8.55937 18.75 7.5 18.75C6.44062 18.75 5.54062 18.2812 4.94062 17.8641C4.76719 17.7422 4.6125 17.6203 4.48125 17.5125C4.33594 17.625 4.1625 17.7516 3.97031 17.8781C3.3375 18.2859 2.40469 18.75 1.35 18.75C0.853125 18.75 0.398437 18.6469 0 18.4969V22.5C0 23.3297 0.670312 24 1.5 24H19.5C20.3297 24 21 23.3297 21 22.5V18.4969Z" fill="black"/>
</g>
<defs>
<clipPath id="clip0_1739_1311">
<rect width="21" height="24" fill="white"/>
</clipPath>
</defs>
</svg>
