<svg width="24" height="24" viewBox="0 0 24 24" fill="none" xmlns="http://www.w3.org/2000/svg">
<path d="M3 12L2.0513 11.6838C1.9829 11.889 1.9829 12.1109 2.0513 12.3162L3 12ZM20.9999 12L21.9486 12.3162C22.017 12.1109 22.017 11.889 21.9486 11.6838L20.9999 12ZM3.9487 12.3162C5.1995 8.56307 8.38055 6 12 6V4C7.37564 4 3.52581 7.25947 2.0513 11.6838L3.9487 12.3162ZM12 6C15.6194 6 18.8004 8.56308 20.0512 12.3162L21.9486 11.6838C20.4741 7.25947 16.6243 4 12 4V6ZM20.0512 11.6838C18.8004 15.4369 15.6194 17.9999 12 17.9999V19.9999C16.6243 19.9999 20.4741 16.7405 21.9486 12.3162L20.0512 11.6838ZM12 17.9999C8.38055 17.9999 5.1995 15.4369 3.9487 11.6838L2.0513 12.3162C3.52581 16.7405 7.37564 19.9999 12 19.9999V17.9999Z" fill="#0F1013"/>
<circle cx="12" cy="12" r="3" stroke="#0F1013" stroke-width="2" stroke-linecap="round" stroke-linejoin="round"/>
<circle cx="13.5" cy="10.5" r="1.5" fill="#0F1013"/>
</svg>
