<svg width="24" height="24" viewBox="0 0 24 24" fill="none" xmlns="http://www.w3.org/2000/svg">
<path d="M4.5 4.5C4.5 2.84531 5.84531 1.5 7.5 1.5H21C22.6547 1.5 24 2.84531 24 4.5V19.5C24 21.1547 22.6547 22.5 21 22.5H3.75C1.67812 22.5 0 20.8219 0 18.75V6C0 5.17031 0.670312 4.5 1.5 4.5C2.32969 4.5 3 5.17031 3 6V18.75C3 19.1625 3.3375 19.5 3.75 19.5C4.1625 19.5 4.5 19.1625 4.5 18.75V4.5ZM7.5 5.625V9.375C7.5 9.99844 8.00156 10.5 8.625 10.5H13.875C14.4984 10.5 15 9.99844 15 9.375V5.625C15 5.00156 14.4984 4.5 13.875 4.5H8.625C8.00156 4.5 7.5 5.00156 7.5 5.625ZM17.25 5.25C17.25 5.6625 17.5875 6 18 6H20.25C20.6625 6 21 5.6625 21 5.25C21 4.8375 20.6625 4.5 20.25 4.5H18C17.5875 4.5 17.25 4.8375 17.25 5.25ZM17.25 9.75C17.25 10.1625 17.5875 10.5 18 10.5H20.25C20.6625 10.5 21 10.1625 21 9.75C21 9.3375 20.6625 9 20.25 9H18C17.5875 9 17.25 9.3375 17.25 9.75ZM7.5 14.25C7.5 14.6625 7.8375 15 8.25 15H20.25C20.6625 15 21 14.6625 21 14.25C21 13.8375 20.6625 13.5 20.25 13.5H8.25C7.8375 13.5 7.5 13.8375 7.5 14.25ZM7.5 18.75C7.5 19.1625 7.8375 19.5 8.25 19.5H20.25C20.6625 19.5 21 19.1625 21 18.75C21 18.3375 20.6625 18 20.25 18H8.25C7.8375 18 7.5 18.3375 7.5 18.75Z" fill="black"/>
</svg>
