<svg width="24" height="24" viewBox="0 0 24 24" fill="none" xmlns="http://www.w3.org/2000/svg">
<g clip-path="url(#clip0_1720_5521)">
<path d="M24 2C24 0.89375 23.2339 0 22.2857 0H1.71428C0.766071 0 0 0.89375 0 2C0 3.10625 0.766071 4 1.71428 4H22.2857C23.2339 4 24 3.10625 24 2ZM24 12C24 10.8938 23.2339 10 22.2857 10H1.71428C0.766071 10 0 10.8938 0 12C0 13.1062 0.766071 14 1.71428 14H22.2857C23.2339 14 24 13.1062 24 12ZM0 22C0 23.1063 0.766071 24 1.71428 24H22.2857C23.2339 24 24 23.1063 24 22C24 20.8937 23.2339 20 22.2857 20H1.71428C0.766071 20 0 20.8937 0 22Z" fill="#0F1013"/>
</g>
<defs>
<clipPath id="clip0_1720_5521">
<rect width="24" height="24" fill="white" transform="matrix(-1 0 0 1 24 0)"/>
</clipPath>
</defs>
</svg>
