<svg width="18" height="24" viewBox="0 0 18 24" fill="none" xmlns="http://www.w3.org/2000/svg">
<g clip-path="url(#clip0_1737_3010)">
<path d="M0.65625 0.103071C1.05469 -0.0797418 1.52344 -0.0141168 1.85625 0.271821L3.75 1.8937L5.64375 0.271821C6.06563 -0.0891168 6.68906 -0.0891168 7.10625 0.271821L9 1.8937L10.8937 0.271821C11.3156 -0.0891168 11.9391 -0.0891168 12.3563 0.271821L14.25 1.8937L16.1437 0.271821C16.4766 -0.0141168 16.9453 -0.0797418 17.3438 0.103071C17.7422 0.285883 18 0.684321 18 1.12495V22.8749C18 23.3156 17.7422 23.714 17.3438 23.8968C16.9453 24.0796 16.4766 24.014 16.1437 23.7281L14.25 22.1062L12.3563 23.7281C11.9344 24.089 11.3109 24.089 10.8937 23.7281L9 22.1062L7.10625 23.7281C6.68438 24.089 6.06094 24.089 5.64375 23.7281L3.75 22.1062L1.85625 23.7281C1.52344 24.014 1.05469 24.0796 0.65625 23.8968C0.257812 23.714 0 23.3156 0 22.8749V1.12495C0 0.684321 0.257812 0.285883 0.65625 0.103071ZM4.5 6.74995C4.0875 6.74995 3.75 7.08745 3.75 7.49995C3.75 7.91245 4.0875 8.24995 4.5 8.24995H13.5C13.9125 8.24995 14.25 7.91245 14.25 7.49995C14.25 7.08745 13.9125 6.74995 13.5 6.74995H4.5ZM3.75 16.4999C3.75 16.9124 4.0875 17.2499 4.5 17.2499H13.5C13.9125 17.2499 14.25 16.9124 14.25 16.4999C14.25 16.0874 13.9125 15.7499 13.5 15.7499H4.5C4.0875 15.7499 3.75 16.0874 3.75 16.4999ZM4.5 11.2499C4.0875 11.2499 3.75 11.5874 3.75 11.9999C3.75 12.4124 4.0875 12.7499 4.5 12.7499H13.5C13.9125 12.7499 14.25 12.4124 14.25 11.9999C14.25 11.5874 13.9125 11.2499 13.5 11.2499H4.5Z" fill="black"/>
</g>
<defs>
<clipPath id="clip0_1737_3010">
<rect width="18" height="24" fill="white"/>
</clipPath>
</defs>
</svg>
